<?xml version="1.0" encoding="UTF-8" standalone="no"?>
<!-- Created with Inkscape (http://www.inkscape.org/) -->

<svg
   xmlns:dc="http://purl.org/dc/elements/1.1/"
   xmlns:cc="http://creativecommons.org/ns#"
   xmlns:rdf="http://www.w3.org/1999/02/22-rdf-syntax-ns#"
   xmlns:svg="http://www.w3.org/2000/svg"
   xmlns="http://www.w3.org/2000/svg"
   xmlns:sodipodi="http://sodipodi.sourceforge.net/DTD/sodipodi-0.dtd"
   xmlns:inkscape="http://www.inkscape.org/namespaces/inkscape"
   width="50"
   height="26.778057"
   viewBox="0 0 49.999998 26.778056"
   id="svg2"
   version="1.1"
   inkscape:version="0.91 r13725"
   sodipodi:docname="demultiplexer.svg">
  <defs
     id="defs4" />
  <sodipodi:namedview
     id="base"
     pagecolor="#ffffff"
     bordercolor="#666666"
     borderopacity="1.0"
     inkscape:pageopacity="0.0"
     inkscape:pageshadow="2"
     inkscape:zoom="9.3791369"
     inkscape:cx="52.659106"
     inkscape:cy="-2.7106351"
     inkscape:document-units="px"
     inkscape:current-layer="layer1"
     showgrid="false"
     fit-margin-top="0"
     fit-margin-left="0"
     fit-margin-right="0"
     fit-margin-bottom="0"
     units="px"
     inkscape:window-width="1553"
     inkscape:window-height="876"
     inkscape:window-x="47"
     inkscape:window-y="24"
     inkscape:window-maximized="1" />
  <metadata
     id="metadata7">
    <rdf:RDF>
      <cc:Work
         rdf:about="">
        <dc:format>image/svg+xml</dc:format>
        <dc:type
           rdf:resource="http://purl.org/dc/dcmitype/StillImage" />
        <dc:title></dc:title>
      </cc:Work>
    </rdf:RDF>
  </metadata>
  <g
     inkscape:label="Layer 1"
     inkscape:groupmode="layer"
     id="layer1"
     transform="translate(-202.03125,-361.25124)">
    <g
       id="g4161"
       transform="matrix(0.17733812,0,0,0.17733812,166.20341,319.21691)">
      <path
         id="path4147"
         d="m 253.53125,237.0293 0,75.5 0,75.5 26.01563,0 26.01367,0 2.9414,0 25.5293,0 25.5293,0 2.9414,0 34.51563,0 34.51367,0 0,-16 0,-16 35,0 1,0 0,3 c 0.91526,1.37288 0.46166,3 1.02539,3 0.56373,0 4.2636,-1.63125 8.22266,-3.625 l 7.19922,-3.625 -7.47461,-3.82618 c -3.78469,-2.64528 -7.81016,-3.8478 -8.22266,-3.875 -0.4125,-0.0272 -0.75,1.30118 -0.75,2.95118 l 0,3 -1,0 -35,0 0,-12 0,-12 34.5,0 0.5,0 0,3 c 0,1.65 0.46166,3 1.02539,3 0.56373,0 4.2636,-1.63125 8.22266,-3.625 l 7.19922,-3.625 -7.47461,-3.82618 c -4.11029,-2.10403 -7.81016,-3.8478 -8.22266,-3.875 -0.4125,-0.0272 -0.75,1.30118 -0.75,2.95118 l 0,3 -0.5,0 -34.5,0 0,-13.5 0,-13.5 35,0 1,0 0,3 c 0.91526,1.37288 0.46166,3 1.02539,3 0.56373,0 4.2636,-1.63125 8.22266,-3.625 l 7.19922,-3.625 -7.47461,-3.82618 c -3.78469,-2.64528 -7.81016,-3.8478 -8.22266,-3.875 -0.4125,-0.0272 -0.75,1.30118 -0.75,2.95118 l 0,3 -1,0 -35,0 0,-12 0,-12 35,0 1,0 0,3 c 0,1.65 0.46166,3 1.02539,3 0.56373,0 4.2636,-1.63125 8.22266,-3.625 l 7.19922,-3.625 -7.47461,-3.82618 c -3.78469,-2.64528 -7.81016,-3.8478 -8.22266,-3.875 -0.4125,-0.0272 -0.75,1.30118 -0.75,2.95118 l 0,3 -1,0 -35,0 0,-16 0,-16 -89,0 -89,0 z m 3,3 86,0 86,0 0,72.5 0,72.5 -86,0 -86,0 0,-72.5 0,-72.5 z m -18.47461,62 c -0.28873,0 -0.52539,1.35 -0.52539,3 l 0,3 -35.5,0 0,3 35.5,0 0,3 c 0,1.65 0.44088,3 0.98047,3 1.62202,0 14.01953,-6.36789 14.01953,-7.20118 0,-0.69227 -13.18955,-7.79882 -14.47461,-7.79882 z"
         style="fill:#000000"
         inkscape:connector-curvature="0" />
      <path
         inkscape:connector-curvature="0"
         id="path4155"
         d="m 319.67558,298.98511 -12.27443,0.13222 c -6.75091,0.0735 -11.32209,0.51903 -10.15814,0.98869 1.40326,0.56623 2.11628,4.75217 2.11628,12.42322 0,7.67109 -0.71302,11.85701 -2.11628,12.42325 -1.16395,0.46965 3.78816,0.91521 11.00466,0.98868 l 13.12093,0.13223 0,-4.5533 0,-4.55 -3.45218,3.70348 c -1.89859,2.03792 -4.94603,3.7068 -6.77209,3.7068 -2.6762,0 -3.31992,-1.16785 -3.31992,-6.02478 0,-3.58588 0.68547,-5.60256 1.69302,-4.97988 0.93119,0.57549 1.69303,2.14347 1.69303,3.48526 0,1.34179 0.76185,2.44032 1.69302,2.44032 0.93118,0 1.69303,-3.42835 1.69303,-7.6186 0,-4.19022 -0.76185,-7.61861 -1.69303,-7.61861 -0.93117,0 -1.69302,1.09856 -1.69302,2.44034 0,1.34179 -0.76184,2.90975 -1.69303,3.48524 -0.98773,0.61049 -1.69302,-1.1118 -1.69302,-4.13334 2e-5,-6.38925 4.98731,-7.14602 9.01735,-1.36898 l 2.65857,3.8093 0.086,-4.65582 0.0892,-4.65581 z m 93.44036,0.053 c -3.08123,-0.0282 -5.17276,0.64086 -4.64919,1.488 0.5235,0.84713 0.47814,2.77101 -0.0992,4.27555 -0.82969,2.16216 -1.55683,2.31417 -3.46869,0.72748 -1.33038,-1.10413 -2.02628,-3.028 -1.54755,-4.27555 0.68063,-1.77371 -1.79535,-2.24058 -11.35183,-2.13613 -6.72172,0.0735 -11.26922,0.51904 -10.10526,0.9887 3.14501,1.26904 2.81501,19.89655 -0.4001,22.56484 -1.38488,1.14928 -3.67045,1.64495 -5.07907,1.10443 -3.31589,-1.27243 -3.71361,-22.35093 -0.44641,-23.66927 1.16395,-0.46966 -4.55,-0.91522 -12.69769,-0.9887 -10.73161,-0.0968 -14.84867,0.45095 -14.93959,1.98401 -0.0691,1.16396 -1.45665,5.13553 -3.08514,8.82557 l -2.9628,6.70926 -3.17111,-8.82554 c -3.13136,-8.7087 -3.26617,-8.82518 -10.03579,-8.6933 -3.7735,0.0735 -5.90906,0.51904 -4.7451,0.9887 1.40325,0.56623 2.11628,4.75216 2.11628,12.42322 0,7.67109 -0.71303,11.85701 -2.11628,12.42324 -1.16393,0.46966 0.55022,0.85312 3.8093,0.85312 3.25907,0 4.97325,-0.38346 3.8093,-0.85312 -1.33179,-0.5374 -2.07394,-4.09783 -2.00385,-9.60263 l 0.11242,-8.74619 4.36152,9.79441 c 2.39942,5.38753 5.13763,9.53792 6.0843,9.22236 0.94665,-0.31555 3.31409,-4.72245 5.26094,-9.79441 l 3.53814,-9.22236 0.52578,8.2998 c 0.34857,5.49477 -0.22383,8.78 -1.69303,9.71173 -1.34064,0.85021 1.13349,1.36455 6.24633,1.29954 4.65582,-0.0592 7.51279,-0.49259 6.34884,-0.96225 -1.40672,-0.56764 -2.11628,-4.78147 -2.11628,-12.56542 0,-10.58139 0.32636,-11.70899 3.38604,-11.70899 3.00531,2e-5 3.38605,1.12728 3.38605,10.03581 10e-6,11.77918 2.5718,15.35955 11.03112,15.35955 7.71538,0 10.97818,-4.93247 10.97818,-16.58634 2e-5,-7.64557 0.45303,-8.97006 2.90329,-8.49817 2.72001,0.52382 10.64091,10.46284 10.64091,13.3524 2e-5,0.72183 -2.34298,3.65896 -5.20803,6.52408 l -5.21133,5.20803 5.63458,-0.0264 c 4.21325,-0.0195 4.99138,-0.42898 3.09176,-1.6302 -2.21331,-1.39959 -2.14334,-1.99709 0.52907,-4.63267 2.94462,-2.90405 3.15972,-2.89131 5.49902,0.26454 1.9173,2.58653 1.98634,3.57177 0.32074,4.62937 -1.23839,0.78634 0.85369,1.35372 5.04271,1.36896 l 7.15898,0.0264 -4.95673,-7.81369 c -4.67654,-7.37413 -4.80419,-8.0376 -2.2816,-11.88753 1.46976,-2.24318 3.90802,-4.79963 5.41633,-5.6809 2.12422,-1.24114 1.47917,-1.61339 -2.86027,-1.65334 z m -136.92329,0.0794 c -5.41541,0.0735 -8.89499,0.51903 -7.73104,0.98869 1.40326,0.56623 2.11627,4.75216 2.11627,12.42322 0,7.67109 -0.71301,11.85701 -2.11627,12.42324 -1.16394,0.46966 1.84795,0.91522 6.69274,0.98869 11.12241,0.1688 16.80443,-2.40158 18.95393,-8.56763 2.05554,-5.89658 -0.44464,-14.30818 -4.97326,-16.73183 -1.70317,-0.9115 -7.52696,-1.59786 -12.94237,-1.52438 z m 4.20611,1.56075 c 5.10437,0 7.80063,17.25746 3.38605,21.67204 -3.84755,3.84755 -4.74181,1.99663 -4.74181,-9.82088 2e-5,-6.51814 0.61083,-11.85116 1.35576,-11.85116 z"
         style="fill:#400043;fill-opacity:1" />
    </g>
  </g>
</svg>
