<?xml version="1.0" encoding="UTF-8" standalone="no"?>
<!-- Created with Inkscape (http://www.inkscape.org/) -->

<svg
   xmlns:dc="http://purl.org/dc/elements/1.1/"
   xmlns:cc="http://creativecommons.org/ns#"
   xmlns:rdf="http://www.w3.org/1999/02/22-rdf-syntax-ns#"
   xmlns:svg="http://www.w3.org/2000/svg"
   xmlns="http://www.w3.org/2000/svg"
   xmlns:sodipodi="http://sodipodi.sourceforge.net/DTD/sodipodi-0.dtd"
   xmlns:inkscape="http://www.inkscape.org/namespaces/inkscape"
   width="50"
   height="50"
   viewBox="0 0 49.999998 49.999998"
   id="svg2"
   version="1.1"
   inkscape:version="0.91 r13725"
   sodipodi:docname="link.svg">
  <defs
     id="defs4">
    <marker
       inkscape:stockid="Arrow2Mend"
       orient="auto"
       refY="0.0"
       refX="0.0"
       id="marker5429"
       style="overflow:visible;"
       inkscape:isstock="true">
      <path
         id="path5431"
         style="fill-rule:evenodd;stroke-width:0.625;stroke-linejoin:round;stroke:#000000;stroke-opacity:1;fill:#000000;fill-opacity:1"
         d="M 8.7185878,4.0337352 L -2.2072895,0.016013256 L 8.7185884,-4.0017078 C 6.9730900,-1.6296469 6.9831476,1.6157441 8.7185878,4.0337352 z "
         transform="scale(0.6) rotate(180) translate(0,0)" />
    </marker>
    <marker
       inkscape:isstock="true"
       style="overflow:visible;"
       id="marker5365"
       refX="0.0"
       refY="0.0"
       orient="auto"
       inkscape:stockid="Arrow2Mend">
      <path
         transform="scale(0.6) rotate(180) translate(0,0)"
         d="M 8.7185878,4.0337352 L -2.2072895,0.016013256 L 8.7185884,-4.0017078 C 6.9730900,-1.6296469 6.9831476,1.6157441 8.7185878,4.0337352 z "
         style="fill-rule:evenodd;stroke-width:0.625;stroke-linejoin:round;stroke:#000000;stroke-opacity:1;fill:#000000;fill-opacity:1"
         id="path5367" />
    </marker>
    <marker
       inkscape:isstock="true"
       style="overflow:visible;"
       id="marker5307"
       refX="0.0"
       refY="0.0"
       orient="auto"
       inkscape:stockid="Arrow2Mend">
      <path
         transform="scale(0.6) rotate(180) translate(0,0)"
         d="M 8.7185878,4.0337352 L -2.2072895,0.016013256 L 8.7185884,-4.0017078 C 6.9730900,-1.6296469 6.9831476,1.6157441 8.7185878,4.0337352 z "
         style="fill-rule:evenodd;stroke-width:0.625;stroke-linejoin:round;stroke:#000000;stroke-opacity:1;fill:#000000;fill-opacity:1"
         id="path5309" />
    </marker>
    <marker
       inkscape:stockid="Arrow1Send"
       orient="auto"
       refY="0.0"
       refX="0.0"
       id="Arrow1Send"
       style="overflow:visible;"
       inkscape:isstock="true">
      <path
         id="path4163"
         d="M 0.0,0.0 L 5.0,-5.0 L -12.5,0.0 L 5.0,5.0 L 0.0,0.0 z "
         style="fill-rule:evenodd;stroke:#000000;stroke-width:1pt;stroke-opacity:1;fill:#000000;fill-opacity:1"
         transform="scale(0.2) rotate(180) translate(6,0)" />
    </marker>
    <marker
       inkscape:stockid="Arrow1Lstart"
       orient="auto"
       refY="0.0"
       refX="0.0"
       id="Arrow1Lstart"
       style="overflow:visible"
       inkscape:isstock="true">
      <path
         id="path4148"
         d="M 0.0,0.0 L 5.0,-5.0 L -12.5,0.0 L 5.0,5.0 L 0.0,0.0 z "
         style="fill-rule:evenodd;stroke:#000000;stroke-width:1pt;stroke-opacity:1;fill:#000000;fill-opacity:1"
         transform="scale(0.8) translate(12.5,0)" />
    </marker>
    <marker
       inkscape:stockid="Arrow1Lend"
       orient="auto"
       refY="0.0"
       refX="0.0"
       id="Arrow1Lend"
       style="overflow:visible;"
       inkscape:isstock="true">
      <path
         id="path4151"
         d="M 0.0,0.0 L 5.0,-5.0 L -12.5,0.0 L 5.0,5.0 L 0.0,0.0 z "
         style="fill-rule:evenodd;stroke:#000000;stroke-width:1pt;stroke-opacity:1;fill:#000000;fill-opacity:1"
         transform="scale(0.8) rotate(180) translate(12.5,0)" />
    </marker>
  </defs>
  <sodipodi:namedview
     id="base"
     pagecolor="#ffffff"
     bordercolor="#666666"
     borderopacity="1.0"
     inkscape:pageopacity="0.0"
     inkscape:pageshadow="2"
     inkscape:zoom="4.7504719"
     inkscape:cx="105.6978"
     inkscape:cy="9.8320822"
     inkscape:document-units="px"
     inkscape:current-layer="layer1"
     showgrid="false"
     inkscape:snap-text-baseline="true"
     fit-margin-top="0"
     fit-margin-left="0"
     fit-margin-right="0"
     fit-margin-bottom="0"
     units="px"
     inkscape:window-width="1553"
     inkscape:window-height="876"
     inkscape:window-x="47"
     inkscape:window-y="24"
     inkscape:window-maximized="1" />
  <metadata
     id="metadata7">
    <rdf:RDF>
      <cc:Work
         rdf:about="">
        <dc:format>image/svg+xml</dc:format>
        <dc:type
           rdf:resource="http://purl.org/dc/dcmitype/StillImage" />
        <dc:title></dc:title>
      </cc:Work>
    </rdf:RDF>
  </metadata>
  <g
     inkscape:label="Layer 1"
     inkscape:groupmode="layer"
     id="layer1"
     transform="translate(-131.42857,-739.50513)">
    <text
       xml:space="preserve"
       style="font-style:normal;font-weight:normal;font-size:12.2168169px;line-height:125%;font-family:sans-serif;text-align:center;letter-spacing:0px;word-spacing:0px;text-anchor:middle;fill:#000000;fill-opacity:1;stroke:none;stroke-width:1px;stroke-linecap:butt;stroke-linejoin:miter;stroke-opacity:1"
       x="143.81787"
       y="788.3869"
       id="text5772"
       sodipodi:linespacing="125%"><tspan
         sodipodi:role="line"
         id="tspan5774"
         x="143.81787"
         y="788.3869">Link</tspan></text>
    <path
       style="fill:#000000"
       d="m 156.39443,779.47023 -2.99447,-0.90024 -0.0636,-1.5711 c -0.0363,-0.89794 0.0325,-1.66702 0.16043,-1.79501 0.37092,-0.37092 0.26748,-0.50689 -0.76639,-1.00738 -2.19661,-1.06335 -4.45369,-4.06968 -4.88593,-6.50781 -0.0832,-0.46924 -0.47061,-1.28822 -0.86094,-1.81996 -0.73559,-1.00207 -1.60457,-3.24174 -1.60457,-4.13556 0,-0.44775 -0.12574,-0.52964 -0.99654,-0.649 -0.57826,-0.0793 -1.30738,-0.37367 -1.73709,-0.70143 -0.59204,-0.45157 -1.11798,-0.60698 -2.62263,-0.77497 -1.696,-0.18936 -1.976,-0.28678 -2.83187,-0.98529 -0.52237,-0.42634 -1.34586,-1.06393 -1.82998,-1.41685 -0.48411,-0.35292 -0.88248,-0.77826 -0.88526,-0.9452 -0.003,-0.16695 0.25117,-0.99256 0.56435,-1.83468 0.65157,-1.7521 1.0834,-2.06644 2.77751,-2.02183 1.28139,0.0337 2.90757,-0.10119 3.18406,-0.2642 0.11362,-0.067 0.74697,-0.11989 1.40744,-0.11755 1.31564,0.005 1.68667,-0.13062 1.68667,-0.61499 0,-0.37097 2.39425,-6.36605 3.10854,-7.78361 0.66739,-1.32448 1.90894,-2.51951 3.30819,-3.18424 0.9844,-0.46764 1.47312,-0.55836 2.99447,-0.55585 1.56315,0.003 1.97452,0.085 2.93382,0.58817 0.61366,0.32184 1.58456,0.99424 2.15754,1.49423 2.63091,2.29575 3.46016,2.92157 5.53713,4.17883 l 2.22148,1.34474 4.57331,0.13242 4.5733,0.1324 0.63343,-0.53299 c 0.34839,-0.29315 1.18471,-0.75674 1.8585,-1.03021 1.02913,-0.4177 1.29035,-0.63714 1.63317,-1.37195 0.28531,-0.61155 0.37508,-0.70373 0.2984,-0.30638 -0.0603,0.31258 -0.16852,0.72164 -0.24043,0.90903 -0.0961,0.2505 0.003,0.34443 0.3734,0.35479 0.27728,0.008 -9.1e-4,0.15012 -0.61865,0.31641 -1.14452,0.30819 -2.7253,1.0289 -2.90427,1.32411 -0.0546,0.0899 0.33382,0.18372 0.86297,0.20848 0.99935,0.0467 2.61632,0.70718 3.07008,1.25393 0.21089,0.25411 0.20286,0.29255 -0.0415,0.19878 -0.30818,-0.11827 -2.21789,1.13968 -2.0242,1.33336 0.0583,0.0583 0.41517,-0.002 0.79318,-0.13368 0.378,-0.13177 0.73013,-0.19672 0.78252,-0.14433 0.0524,0.0524 -0.46853,0.25639 -1.15761,0.45334 -1.14991,0.32867 -2.1852,1.11545 -2.20767,1.67775 -0.005,0.1094 0.84605,0.138 1.97079,0.0663 1.17533,-0.0749 1.79517,-0.0518 1.52689,0.0571 -0.24839,0.10076 -1.24494,0.23332 -2.21457,0.29456 -0.96964,0.0613 -1.78439,0.14146 -1.81059,0.17828 -0.0262,0.0368 -0.25956,0.41962 -0.51864,0.85068 l -0.47104,0.78375 0.59432,0.11153 c 2.25697,0.42351 2.56642,0.39897 3.50047,-0.27766 0.49561,-0.35902 0.98364,-0.65275 1.08451,-0.65275 0.17086,0 -0.88396,0.91275 -6.00458,5.19585 -1.31747,1.10199 -2.25776,2.08946 -2.71903,2.85546 -0.3878,0.64402 -1.00553,1.55027 -1.37273,2.01389 -0.36719,0.46363 -0.63219,0.94926 -0.58888,1.07919 0.0968,0.29052 3.66958,-2.10881 5.95233,-3.99737 1.40351,-1.16115 1.92017,-1.78149 3.11081,-3.73499 1.51183,-2.4805 2.09508,-3.18281 0.92407,-1.11271 -3.05597,5.40235 -5.74032,8.82698 -9.20134,11.73892 -1.4682,1.23527 -1.86944,1.70341 -2.10825,2.45974 -0.1622,0.51377 -0.35987,1.03037 -0.43926,1.14801 -0.27554,0.40835 -0.61103,1.60418 -0.45004,1.60418 0.089,0 0.73372,-0.34324 1.43263,-0.76277 3.54855,-2.13 6.90081,-5.38814 10.03063,-9.74896 1.04312,-1.4534 1.83131,-2.46192 1.75153,-2.24114 -0.0801,0.22166 -0.0245,0.54677 0.12431,0.726 0.22864,0.2755 0.20494,0.30431 -0.15673,0.19057 -0.33442,-0.10518 -0.52554,0.0397 -0.88827,0.67348 -0.81934,1.4316 -2.97406,4.168 -4.59234,5.8321 -1.98583,2.04206 -4.04702,3.67529 -6.44752,5.10886 -1.31996,0.78827 -2.2403,1.53943 -3.10141,2.53132 -2.04324,2.35351 -2.15677,2.4501 -2.71481,2.31004 -0.41271,-0.10359 -0.638,0.0408 -1.21911,0.78161 -1.19217,1.51972 -1.73498,2.08607 -1.97805,2.06391 -0.12761,-0.0116 -1.57952,-0.42628 -3.22648,-0.9214 z m 3.10142,-0.86582 0,-1.3806 -0.80209,-0.1299 c -0.44115,-0.0715 -1.62023,-0.38617 -2.62017,-0.69939 -0.99994,-0.31322 -1.93839,-0.60307 -2.08543,-0.6441 -0.19617,-0.0547 -0.25779,0.28555 -0.23141,1.27791 0.0263,0.98736 0.059,1.12152 0.12124,0.49694 0.13243,-1.32855 0.48448,-1.43735 0.48448,-0.14973 0,0.61173 0.0962,1.11224 0.21388,1.11224 0.11765,0 0.21538,-0.4572 0.21718,-1.01598 0.002,-0.69636 0.0646,-0.91891 0.19851,-0.70741 0.10738,0.16972 0.16297,0.56351 0.12354,0.87509 -0.0395,0.31158 0.0141,0.70211 0.11904,0.86783 0.12681,0.2003 0.19185,-0.0536 0.19402,-0.75746 0.004,-1.30235 0.36795,-1.07066 0.48714,0.31014 l 0.0831,0.96251 0.0374,-1.01598 c 0.0507,-1.37937 0.45563,-1.2934 0.50371,0.10694 l 0.0385,1.12293 0.0801,-1.01598 c 0.10632,-1.34834 0.48446,-1.30661 0.48446,0.0535 0,1.2878 0.34299,1.44366 0.39256,0.17839 0.0508,-1.298 0.2491,-1.29811 0.2491,-1.6e-4 0,0.60781 0.0963,1.10511 0.2139,1.10511 0.11764,0 0.21389,-0.44917 0.21389,-0.99816 0,-1.20934 0.1438,-1.15419 0.28913,0.11089 0.14699,1.27946 0.35254,1.38109 0.35254,0.1743 0,-0.54899 0.0963,-0.99816 0.21389,-0.99816 0.11764,0 0.21389,0.48126 0.21389,1.06945 0,0.5882 0.0481,1.06946 0.10695,1.06946 0.0588,0 0.10695,-0.62127 0.10695,-1.3806 z m 1.99853,-0.73428 1.42372,-1.6871 -0.01,-1.36084 -0.01,-1.36085 -1.18628,1.28334 c -0.65245,0.70584 -1.32178,1.59307 -1.48741,1.97162 -0.25888,0.59171 -0.43909,2.84093 -0.22761,2.84093 0.0405,0 0.71419,-0.7592 1.49723,-1.6871 z m 2.01927,-2.70264 c 0.0679,-2.14983 -0.0992,-2.56149 -1.13028,-2.78328 -0.63332,-0.13624 -0.63193,-0.13291 0.10695,0.25566 0.74859,0.39367 0.74862,0.39374 0.81156,2.07751 0.0515,1.37783 -0.006,1.76132 -0.32083,2.1103 -0.37089,0.41213 -0.36941,0.42375 0.044,0.3457 0.3845,-0.0727 0.43394,-0.27556 0.48861,-2.00589 z m -5.51504,1.10262 c 0,-0.39474 -2.53038,-1.11256 -2.83788,-0.80507 -0.22684,0.22684 0.0655,0.39912 1.44759,0.85316 0.92344,0.30334 1.39029,0.2872 1.39029,-0.0481 z m 1.3903,0.0787 c -0.58802,-0.25268 -0.92572,-0.25268 -0.53473,0 0.17645,0.11403 0.46521,0.20205 0.64167,0.19558 0.21155,-0.008 0.17512,-0.0744 -0.10694,-0.19558 z m 6.0583,-1.62078 1.10704,-1.29994 0,-2.04265 c 0,-1.37761 -0.087,-2.11219 -0.26737,-2.25624 -0.14705,-0.11748 -1.08549,-0.45331 -2.08543,-0.74631 -1.59485,-0.46731 -1.82762,-0.49135 -1.89581,-0.19582 -0.0427,0.1853 -0.22765,0.56568 -0.41088,0.84532 -0.28554,0.43579 -0.28971,0.5359 -0.0292,0.70078 0.16715,0.1058 0.42424,0.19384 0.57128,0.19564 0.43712,0.005 0.30515,0.53489 -0.26736,1.07273 -0.70848,0.66557 -0.67641,0.8096 0.21764,0.97732 1.20427,0.22592 1.60043,0.92829 1.60043,2.83739 0,0.88996 0.0794,1.52667 0.17631,1.41492 0.097,-0.11176 0.67448,-0.78817 1.28335,-1.50314 z m -1.88744,-2.56022 c 0,-0.21602 2.212,-2.84951 2.40627,-2.86479 0.34158,-0.0268 0.11663,0.35515 -0.93724,1.59157 -1.0541,1.23671 -1.46903,1.59633 -1.46903,1.27322 z m -2.81179,3.05807 c 0.45825,-0.49997 1.0901,-1.21672 1.40412,-1.59277 l 0.57094,-0.68374 -0.86498,-0.25916 c -0.97264,-0.2914 -1.06321,-0.59562 -0.43855,-1.47288 0.38416,-0.5395 0.39172,-0.61217 0.0763,-0.73319 -0.41989,-0.16113 -0.2931,-0.29166 -1.22403,1.2602 -0.63165,1.05297 -0.71136,1.30831 -0.45349,1.45261 0.26019,0.14562 0.19993,0.37519 -0.35787,1.36357 -0.54812,0.97123 -0.61597,1.22315 -0.37113,1.37816 0.529,0.33494 0.80843,0.21486 1.65867,-0.7128 z m -2.39648,0.0939 c 0.21653,-0.34672 0.10822,-0.42702 -1.03292,-0.76578 -1.32928,-0.39461 -1.88666,-0.34942 -1.88666,0.15295 0,0.1737 0.46528,0.43205 1.12293,0.62348 1.49638,0.4356 1.51804,0.43547 1.79665,-0.0106 z m -3.72167,-0.39599 c -0.14705,-0.0594 -0.38767,-0.0594 -0.53472,0 -0.14705,0.0594 -0.0267,0.10788 0.26736,0.10788 0.2941,0 0.41441,-0.0485 0.26736,-0.10788 z m 1.27019,-1.45646 c 0.4997,-0.82566 0.8433,-1.17212 1.16667,-1.1764 0.53489,-0.007 0.85894,-0.64027 0.45791,-0.89473 -0.15103,-0.0958 -0.37086,-0.16846 -0.4885,-0.16139 -0.21481,0.0129 -2.88752,3.0484 -2.88752,3.27948 0,0.0678 0.23471,0.12337 0.52157,0.12337 0.40298,0 0.68261,-0.26609 1.22987,-1.17033 z m 3.29536,0.63453 c 0.28372,-0.43301 0.29992,-0.59742 0.0845,-0.85705 -0.21856,-0.26336 -0.16529,-0.4744 0.29554,-1.17075 0.30918,-0.46721 0.56216,-0.89411 0.56216,-0.94866 0,-0.0546 0.40106,-0.73883 0.89124,-1.52062 0.72335,-1.15369 0.83415,-1.45757 0.58819,-1.61326 -0.79299,-0.50194 -1.1582,-0.22191 -2.32152,1.78013 -1.77017,3.0464 -1.71549,2.97263 -2.11081,2.84816 -0.24835,-0.0782 -0.48231,0.0959 -0.7434,0.55306 -0.20954,0.36694 -0.35392,0.68368 -0.32083,0.70385 0.16441,0.10027 2.23355,0.72273 2.46149,0.74049 0.14434,0.0113 0.42041,-0.22066 0.6135,-0.51535 z m -4.49218,-0.89274 c 0.45103,-0.55042 0.71632,-1.03534 0.58952,-1.0776 -0.12679,-0.0423 -0.66593,-0.35297 -1.19809,-0.69045 -1.16427,-0.73837 -2.20222,-2.18265 -2.66232,-3.70459 -0.39298,-1.29991 -0.45005,-4.36354 -0.10407,-5.58664 l 0.235,-0.83079 -1.1136,0.13378 c -0.61249,0.0735 -1.32023,0.13461 -1.57277,0.13564 -0.41337,0.002 -0.48509,0.18449 -0.71915,1.83337 -0.48013,3.38238 0.32422,6.3565 2.2866,8.45484 0.87089,0.93123 2.84548,2.32436 3.30418,2.3312 0.0741,9.1e-4 0.50368,-0.44835 0.9547,-0.99876 z m 12.72016,-2.42149 c 0.11019,0 0.20034,-0.13647 0.20034,-0.30327 0,-0.16679 0.24302,-0.7871 0.54004,-1.37845 0.29702,-0.59137 0.67094,-1.4462 0.83093,-1.89966 0.27475,-0.77875 0.2594,-0.87128 -0.27691,-1.66948 -0.31228,-0.46476 -0.90276,-1.00702 -1.31218,-1.20501 -0.98448,-0.47609 -2.34857,-0.72127 -2.34857,-0.42214 0,0.1254 0.36094,0.2935 0.80209,0.37356 1.75574,0.31862 3.05389,1.37926 3.04324,2.48647 -0.004,0.37088 -0.10269,0.27294 -0.41097,-0.40608 -0.4562,-1.00481 -1.02493,-1.36919 -2.90214,-1.85941 -1.92924,-0.50379 -1.85201,-0.0715 0.0873,0.4889 1.11768,0.32296 1.87687,0.68219 2.23284,1.05652 0.59881,0.62971 0.97767,1.74357 0.59305,1.74357 -0.1304,0 -0.23709,0.14438 -0.23709,0.32085 0,0.17645 -0.0896,0.32083 -0.19901,0.32083 -0.10946,0 -0.24073,0.21656 -0.29171,0.48126 -0.0695,0.36088 -0.1,0.31331 -0.12182,-0.19021 -0.016,-0.36929 -0.19756,-0.86933 -0.40343,-1.11117 -0.43867,-0.51534 -5.21478,-2.0184 -5.75497,-1.81111 -0.21161,0.0812 0.73303,0.45821 2.39074,0.95415 1.50731,0.45095 2.90747,0.97096 3.11148,1.15558 0.37224,0.33687 0.67661,2.01873 0.36535,2.01873 -0.0914,0 -0.16608,-0.27808 -0.16608,-0.61797 0,-0.33989 -0.16844,-0.81716 -0.37431,-1.06061 -0.52235,-0.6177 -5.39571,-2.03963 -6.30551,-1.83981 -0.89962,0.19759 -0.64758,0.31348 2.93101,1.34776 1.80686,0.52221 3.09675,1.01148 3.26184,1.23726 0.15019,0.2054 0.28849,1.00476 0.30731,1.77634 0.0188,0.77159 0.073,1.09008 0.1205,0.70774 0.0475,-0.38233 0.17642,-0.69514 0.2866,-0.69514 z m -11.77755,0.5272 c 0,-0.29824 0.15545,-0.7795 0.34544,-1.06945 l 0.34544,-0.5272 -1.25589,0 c -0.69074,0 -1.56781,-0.0895 -1.94906,-0.19881 -0.61438,-0.1762 -0.67116,-0.15796 -0.49949,0.16042 0.26609,0.49345 1.0498,1.18935 1.9441,1.72625 0.95895,0.57571 1.06946,0.56628 1.06946,-0.0912 z m 1.00221,-0.66575 c -0.19041,-0.19041 -0.57443,0.13536 -0.57443,0.48728 0,0.27934 0.0473,0.27623 0.3463,-0.0228 0.19047,-0.19046 0.29312,-0.39947 0.22813,-0.46447 z m 2.71201,-1.56767 c 0.54526,-0.93841 0.99138,-1.75655 0.99138,-1.81807 0,-0.0616 -0.26593,-0.11186 -0.59095,-0.11186 -0.46446,0 -0.85366,0.30678 -1.81808,1.43308 -0.67492,0.78819 -1.22711,1.49615 -1.22711,1.57324 0,0.11535 1.0279,0.526 1.52184,0.60799 0.0724,0.012 0.57767,-0.74596 1.12292,-1.68438 z m -1.65454,-0.80446 c 0.45531,-0.5574 1.01149,-1.19823 1.23594,-1.42408 0.40178,-0.40427 0.40013,-0.40827 -0.10695,-0.25824 -1.16015,0.34324 -4.99227,0.37723 -6.18286,0.0548 -0.64685,-0.17516 -1.20364,-0.29094 -1.2373,-0.25727 -0.0336,0.0336 0.11058,0.57921 0.32054,1.21233 0.32833,0.99003 0.48652,1.18686 1.13037,1.40643 0.41174,0.1404 1.48297,0.26072 2.3805,0.26736 l 1.6319,0.0121 0.82786,-1.01344 z m 14.31866,-2.49794 c 1.18605,-1.1862 2.62882,-2.78236 3.20617,-3.54702 l 1.04972,-1.39029 -1.06634,0.81015 c -0.58648,0.44558 -2.0529,1.48242 -3.25871,2.30411 -1.53112,1.04336 -2.19238,1.62085 -2.19238,1.91466 0,0.23139 -0.18251,0.90104 -0.40558,1.4881 l -0.40558,1.06739 0.45814,-0.24519 c 0.25196,-0.13484 1.42852,-1.21571 2.61456,-2.40191 z m -4.47706,1.28181 c -0.2625,-0.40064 -0.86901,-0.69244 -2.45896,-1.18308 -1.16077,-0.3582 -2.28752,-0.65127 -2.50388,-0.65127 -0.81621,0 0.0696,0.41363 2.25887,1.05477 1.32744,0.38876 2.37706,0.82308 2.56669,1.06208 0.45259,0.57041 0.55629,0.35699 0.13728,-0.2825 z m 0.19123,-0.75688 c -0.39185,-0.40901 -1.10307,-0.74989 -2.24,-1.07362 -2.53601,-0.7221 -2.77784,-0.39786 -0.2878,0.38588 1.54027,0.48481 2.29801,0.8387 2.56669,1.19873 0.20967,0.28097 0.41588,0.41577 0.45824,0.29957 0.0424,-0.11621 -0.18134,-0.48096 -0.49713,-0.81056 z m -9.04251,-0.10496 c 1.60825,-0.28672 2.08846,-0.5003 5.96653,-2.65371 0.66523,-0.36938 1.40549,-0.6716 1.64503,-0.6716 0.23954,0 0.49501,-0.0963 0.56771,-0.2139 0.17795,-0.28793 0.0536,-0.27503 -1.92732,0.19993 -3.66572,0.87892 -5.7608,1.14827 -9.08806,1.16839 -1.82341,0.011 -3.58,-0.0536 -3.9035,-0.14349 -0.58439,-0.16246 -0.58821,-0.15665 -0.58821,0.89342 0,1.12358 0.0837,1.19658 1.81808,1.5861 0.91945,0.20649 3.93169,0.11621 5.50974,-0.16514 z m -10.99369,-4.63155 c -0.1601,-0.10145 -0.65204,-0.18592 -1.0932,-0.18772 -0.5932,-0.003 -0.80209,0.0856 -0.80209,0.33811 0,0.62404 0.68099,2.69527 1.1444,3.48069 l 0.4569,0.77439 0.29256,-2.11052 c 0.24674,-1.78 0.24696,-2.13939 0.002,-2.29495 z m 21.44322,3.61626 c -0.28295,-0.7442 -1.39993,-1.62613 -2.26508,-1.78844 -1.28073,-0.24026 -1.33379,0.0406 -0.0772,0.40837 1.15796,0.33895 2.31784,1.29108 2.31784,1.90269 0,0.12822 0.0508,0.18231 0.11292,0.1202 0.0621,-0.0621 0.0223,-0.35139 -0.0886,-0.64282 z m 1.60911,-2.92245 c 0.42587,-0.63093 1.54396,-2.74846 2.48464,-4.70559 2.49473,-5.19041 3.60759,-6.76761 5.7979,-8.21699 l 0.82569,-0.54639 -0.66158,-0.34212 c -0.36388,-0.18817 -1.0859,-0.40029 -1.60449,-0.47136 -0.88773,-0.12168 -1.00084,-0.0758 -1.93305,0.78345 -1.43528,1.323 -2.62907,3.24112 -4.69399,7.54211 -1.00458,2.09241 -2.27564,4.44688 -2.82458,5.23216 -0.54895,0.78527 -0.89682,1.46151 -0.77305,1.50278 0.12377,0.0413 0.59199,0.34683 1.04049,0.67906 l 0.81545,0.60405 0.37612,-0.457 c 0.20687,-0.25135 0.72457,-0.97323 1.15045,-1.60416 z m -8.79886,0.85465 c 1.1764,-0.22265 2.91401,-0.61427 3.86136,-0.87029 1.63372,-0.44153 1.75612,-0.51722 2.3762,-1.46943 0.35957,-0.55216 0.8086,-1.30602 0.99785,-1.67526 l 0.34408,-0.67134 -1.44965,0.50413 c -4.2963,1.49411 -9.72624,2.4744 -13.50908,2.43884 -1.23521,-0.0116 -2.3618,-0.0155 -2.50352,-0.008 -0.21869,0.0106 -0.57978,1.124 -0.59368,1.83057 -0.0125,0.63492 6.98355,0.58242 10.47644,-0.0786 z m -11.6415,-4.30615 c 0.45766,-1.23522 0.83389,-2.34717 0.83606,-2.47099 0.002,-0.12383 -0.92471,-0.91789 -2.05975,-1.7646 -1.59968,-1.19332 -2.22489,-1.53946 -2.78058,-1.53946 -0.9025,0 -0.89574,0.18249 0.0317,0.85556 0.40527,0.2941 0.73949,0.62 0.74273,0.72422 0.004,0.10422 -0.45131,0.13042 -1.01009,0.0582 -0.74721,-0.0965 -0.91696,-0.0731 -0.64168,0.0885 0.20588,0.12087 0.37431,0.34934 0.37431,0.50771 0,0.21001 0.69475,0.36265 2.56669,0.56391 1.41169,0.15179 2.5667,0.36539 2.5667,0.47469 0,0.11296 -0.48468,0.14498 -1.12293,0.0742 -0.61761,-0.0685 -1.74917,-0.18453 -2.51457,-0.25786 l -1.39165,-0.13333 -0.6854,1.98839 c -0.37696,1.09362 -0.64929,2.02449 -0.60518,2.06861 0.0441,0.0441 1.09118,0.19273 2.32682,0.33026 1.23563,0.13753 2.32671,0.33384 2.42461,0.43623 0.19812,0.20721 -3.06644,-0.0118 -4.29034,-0.28785 -0.42459,-0.0958 -0.77198,-0.0993 -0.77198,-0.008 0,0.23011 2.64272,0.6014 4.02995,0.5662 l 1.14243,-0.029 0.83211,-2.24586 z m 0.36885,2.08424 c 0.12258,-0.14771 0.28918,-0.53271 0.37021,-0.85556 0.081,-0.32286 0.24344,-0.58701 0.36091,-0.58701 0.11748,0 0.16838,0.12032 0.11311,0.26737 -0.33119,0.8813 -0.38121,1.22987 -0.17646,1.22987 0.12399,0 0.37237,-0.35166 0.55195,-0.78146 0.36685,-0.87801 0.66611,-0.87514 0.33218,0.004 -0.30307,0.79712 0.11017,0.7219 0.53372,-0.0972 0.18816,-0.36385 0.39093,-0.61272 0.45061,-0.55304 0.0596,0.0597 0.005,0.30292 -0.12272,0.54054 -0.28548,0.53343 -0.29025,0.67404 -0.0228,0.67404 0.11461,0 0.37076,-0.31281 0.5692,-0.69514 0.20602,-0.39692 0.40058,-0.57736 0.4535,-0.4206 0.051,0.15101 -0.0245,0.41571 -0.16761,0.58821 -0.17657,0.21275 -0.18466,0.31365 -0.0252,0.31365 0.12933,0 0.39478,-0.24363 0.58988,-0.54141 0.41477,-0.633 0.65622,-0.55795 0.30661,0.0953 -0.31398,0.58667 0.10248,0.60298 0.46761,0.0184 0.32921,-0.52714 0.62959,-0.56379 0.43833,-0.0535 -0.12122,0.32344 -0.0928,0.33569 0.20935,0.0901 0.1923,-0.15632 0.51055,-0.70561 0.70725,-1.22064 0.42346,-1.10881 0.28577,-2.21107 -0.3478,-2.78445 -0.42931,-0.38852 -0.42999,-0.38697 -0.10409,0.238 0.3593,0.68901 0.40181,1.46299 0.11678,2.12628 -0.13323,0.31004 -0.18796,0.10029 -0.19886,-0.76207 -0.0134,-1.06 -0.0906,-1.25841 -0.70684,-1.81807 -0.38048,-0.34552 -0.5167,-0.41912 -0.30271,-0.16356 0.49305,0.5888 0.69774,2.02972 0.36338,2.55801 -0.21741,0.3435 -0.23694,0.30349 -0.13918,-0.28503 0.1654,-0.99559 -0.22299,-1.88185 -1.11767,-2.55043 -0.61142,-0.45688 -0.69529,-0.48345 -0.37819,-0.11978 0.22411,0.257 0.30807,0.46729 0.18661,0.46729 -0.12147,0 -0.34504,-0.14963 -0.49681,-0.33251 -0.3485,-0.41991 -1.17797,-0.88736 -0.96601,-0.54439 0.24832,0.40178 -0.22064,0.2581 -0.62848,-0.19256 -0.21293,-0.23528 -0.45996,-0.42777 -0.54895,-0.42777 -0.33456,0 -0.0434,0.68336 0.50965,1.19617 0.65677,0.60898 0.74332,1.5175 0.24263,2.54691 l -0.3121,0.64167 0.12081,-0.64167 c 0.38967,-2.06952 0.53498,-1.75878 -1.58485,-3.38906 -1.36283,-1.04809 -1.9564,-1.39515 -1.9564,-1.14389 0,0.0361 0.62683,0.52592 1.39294,1.08845 0.76611,0.56252 1.48666,1.19789 1.60121,1.41192 0.15501,0.28964 -0.007,0.9959 -0.63437,2.76158 -0.60224,1.69555 -0.76142,2.37242 -0.55795,2.37242 0.15659,0 0.385,-0.12085 0.50759,-0.26856 z m 2.10074,-2.83286 c 0.3246,-1.54553 0.29402,-1.6712 -0.60954,-2.50536 -0.48252,-0.44547 -0.77684,-0.80995 -0.65403,-0.80995 0.12281,0 0.34492,0.14655 0.49357,0.32567 0.14865,0.17911 0.43157,0.27447 0.62871,0.2119 0.58993,-0.18723 1.35063,0.81162 1.35063,1.77347 0,0.45709 -0.10391,1.01441 -0.2309,1.2385 -0.17809,0.31425 -0.20416,0.13836 -0.11401,-0.76895 0.10789,-1.08589 0.0713,-1.21755 -0.47622,-1.71113 l -0.5931,-0.53473 0.35711,0.52885 c 0.43371,0.64228 0.44221,1.39563 0.0254,2.25173 l -0.3124,0.64167 0.13477,-0.64167 z m 1.68919,-0.25135 c 0.0808,-0.53199 0.0357,-1.07984 -0.11164,-1.35513 -0.28116,-0.52538 -0.081,-0.90082 0.22348,-0.41929 0.26845,0.42449 0.2527,1.94858 -0.0243,2.34661 -0.16289,0.23409 -0.18656,0.0794 -0.0876,-0.57219 z m 5.23687,2.87108 1.39029,-0.25115 -2.21973,-0.17671 c -1.83536,-0.14611 -2.28012,-0.12205 -2.56848,0.1389 -0.19181,0.1736 -0.8292,0.41502 -1.41641,0.53649 -0.90663,0.18754 -0.72891,0.20447 1.17818,0.11224 1.23522,-0.0597 2.87149,-0.22165 3.63615,-0.35977 z m -15.65849,-0.58777 c 0.0759,-0.24863 0.0379,-0.26442 -0.16877,-0.0702 -0.14667,0.13786 -0.41512,0.19369 -0.59654,0.12407 -0.22343,-0.0857 -0.2776,-0.042 -0.16789,0.1355 0.21137,0.34199 0.80795,0.22092 0.9332,-0.18939 z m 22.5802,-1.0232 c 4.51332,-1.40709 4.39186,-1.47928 -2.67575,-1.59038 -3.33522,-0.0525 -6.19562,-0.13551 -6.35646,-0.18463 -0.16789,-0.0513 -0.32094,0.0929 -0.35938,0.33847 -0.0368,0.23528 -0.12183,0.7818 -0.1889,1.21447 l -0.12193,0.78669 1.12299,0.12318 c 2.36141,0.25901 2.87787,0.28631 4.33135,0.22892 1.01305,-0.04 2.38684,-0.33646 4.24808,-0.91672 z m -22.23968,-0.91399 c 0.30773,-0.83021 0.5595,-1.63413 0.5595,-1.78648 0,-0.38346 -4.53509,-0.95867 -4.65772,-0.59077 -0.0459,0.13782 -0.20958,0.25058 -0.36365,0.25058 -0.29859,0 -0.36606,0.12887 -0.97429,1.86072 l -0.39058,1.11211 0.89379,0.11713 c 0.49159,0.0645 1.4713,0.20204 2.17715,0.30583 2.28723,0.33632 2.13467,0.40657 2.7558,-1.26912 z m 32.28052,-1.74661 c 0.82406,-0.70229 0.78163,-0.70946 -0.97953,-0.16549 -1.5893,0.49088 -1.66542,0.56147 -2.40235,2.22783 l -0.54549,1.23343 1.62196,-1.35666 c 0.89209,-0.74617 1.92951,-1.61876 2.30541,-1.93911 z m -38.99986,1.01023 c 0,-0.11764 -0.0933,-0.0696 -0.20734,0.10695 -0.11404,0.17645 -0.20734,0.41708 -0.20734,0.53472 0,0.11764 0.0933,0.0695 0.20734,-0.10695 0.11404,-0.17645 0.20734,-0.41708 0.20734,-0.53472 z m 33.28619,-1.95321 c 0.40915,-0.89782 0.71649,-1.65958 0.68298,-1.69284 -0.0335,-0.0333 -1.40844,-0.75129 -3.0554,-1.59565 l -2.99446,-1.5352 -2.5667,0.0888 c -3.28182,0.11356 -4.05376,0.44007 -6.2137,2.62822 -0.87632,0.88778 -1.59331,1.51944 -1.59331,1.40371 0,-0.11574 0.64969,-0.86887 1.44376,-1.67363 2.5594,-2.59385 4.11095,-3.00288 10.01007,-2.63894 2.06075,0.12714 4.45438,0.23117 5.3192,0.23117 1.43613,0 1.60238,-0.0458 1.91857,-0.52835 0.1904,-0.29059 0.67165,-0.85381 1.06942,-1.25159 l 0.72323,-0.72323 -4.09276,-0.13768 c -2.25102,-0.0757 -5.45689,-0.20026 -7.12416,-0.27673 -3.3155,-0.1521 -5.09926,0.0723 -6.58844,0.8286 -1.47396,0.74865 -5.80071,5.24128 -5.41714,5.62485 0.0582,0.0582 0.91472,0.34016 1.90332,0.62649 1.45805,0.42232 1.9186,0.66213 2.43911,1.27001 0.78018,0.91116 0.65608,0.89643 7.9796,0.94698 l 5.41291,0.0374 0.7439,-1.63238 z m -31.78241,0.48447 c 0,-0.1525 -0.45719,-0.57493 -1.01597,-0.93869 -0.55879,-0.36378 -1.22853,-0.86125 -1.48829,-1.10549 -0.42395,-0.39859 -0.91798,-0.58943 -0.91798,-0.35461 0,0.0492 -0.0635,0.26576 -0.14103,0.48125 -0.0776,0.2155 -0.0633,0.32137 0.0317,0.23528 0.095,-0.0861 0.35099,0.0489 0.56879,0.30009 0.21782,0.25114 0.3975,0.3697 0.3993,0.26348 0.002,-0.10624 0.074,-0.0918 0.16042,0.0321 0.0865,0.12386 0.51715,0.49551 0.95715,0.82589 0.44001,0.33038 0.74121,0.69584 0.66933,0.81213 -0.0718,0.11628 0.0735,0.10218 0.32293,-0.0313 0.24947,-0.13352 0.45359,-0.36754 0.45359,-0.52005 z m 35.39894,0.29234 c 0.0727,-0.11764 0.0303,-0.21389 -0.0943,-0.21389 -0.12457,0 -0.2265,0.0963 -0.2265,0.21389 0,0.11764 0.0425,0.21389 0.0943,0.21389 0.0519,0 0.15381,-0.0962 0.22651,-0.21389 z m 1.32481,-0.56565 c 0.12336,-0.32147 -0.40588,-0.93159 -0.80808,-0.93159 -0.23618,0 -0.40899,0.60875 -0.27324,0.96251 0.16517,0.43045 0.91247,0.40907 1.08132,-0.0309 z m -30.43864,-0.17014 c -0.065,-0.1694 -0.3748,-0.4714 -0.68843,-0.67111 -0.56781,-0.36155 -0.56756,-0.36024 0.058,0.30801 0.70363,0.75167 0.8011,0.80781 0.63045,0.3631 z m -3.35144,-0.15055 c 1.04932,0.13457 2.09384,0.24161 2.32115,0.23786 0.389,-0.006 0.39129,-0.0235 0.039,-0.29094 -0.51488,-0.39085 -0.46935,-0.96422 0.0931,-1.17228 0.36428,-0.13476 0.18797,-0.20573 -0.79924,-0.32176 -0.97514,-0.11461 -1.31741,-0.0795 -1.48729,0.1529 -0.12136,0.16597 -0.7307,0.37192 -1.35409,0.45765 -0.86942,0.11959 -1.10547,0.22875 -1.01341,0.46866 0.0911,0.23743 0.005,0.28097 -0.35988,0.18076 -0.46655,-0.12833 -0.46835,-0.12276 -0.0647,0.19989 0.29859,0.2387 0.45763,0.2632 0.56637,0.0873 0.11349,-0.18362 0.62722,-0.18361 2.05907,10e-6 z m 35.45974,0.0308 c 0.38313,-0.16463 0.3682,-0.18539 -0.14292,-0.19886 -0.31389,-0.008 -0.72405,-0.0738 -0.91146,-0.14579 -0.24941,-0.0957 -0.30531,-0.0384 -0.2085,0.21389 0.1435,0.37398 0.58944,0.42015 1.26288,0.13076 z m -38.28645,-0.85556 c 0.34169,-0.37757 0.34646,-0.42779 0.0406,-0.42779 -0.19055,0 -0.44948,0.19251 -0.5754,0.42779 -0.12592,0.23528 -0.14422,0.42778 -0.0406,0.42778 0.10354,0 0.36247,-0.1925 0.57541,-0.42778 z m -0.81024,-0.49373 c -0.0651,-0.16973 -0.41519,-0.51991 -0.7779,-0.77819 -0.60945,-0.43396 -0.67036,-0.44128 -0.80267,-0.0965 -0.10169,0.26499 0.0663,0.548 0.57958,0.97651 0.71635,0.59804 1.24878,0.54387 1.00099,-0.10185 z m 12.46729,0.62686 c 0,-0.0444 -0.16845,-0.21285 -0.37432,-0.3743 -0.33924,-0.26606 -0.34681,-0.25849 -0.0807,0.0807 0.27943,0.35628 0.45508,0.46959 0.45508,0.29354 z m -5.13339,-0.66786 c -0.14645,-0.17646 -0.37479,-0.31778 -0.50744,-0.31403 -0.13265,0.004 -0.0544,0.14811 0.17402,0.32083 0.53336,0.40343 0.67154,0.40061 0.33342,-0.006 z m 9.21209,-3.55252 c 1.73519,-1.72469 3.38865,-2.70937 4.88692,-2.91034 0.48345,-0.0648 0.80769,-0.20789 0.7356,-0.32454 -0.30023,-0.48578 -1.94575,-1.01032 -3.17756,-1.0129 -1.61829,-0.004 -3.2599,0.85855 -4.06545,2.13461 -0.57582,0.91217 -2.67211,5.01435 -2.67211,5.22901 0,0.0713 0.21657,0.21758 0.48126,0.32508 0.41569,0.16883 0.59656,0.0586 1.32759,-0.80898 0.46548,-0.55243 1.58318,-1.73681 2.48375,-2.63194 z m -15.94965,2.91748 c -0.35292,-0.28929 -0.82881,-0.52944 -1.05753,-0.53366 -0.32583,-0.006 -0.25896,0.10807 0.30891,0.52703 0.96235,0.70999 1.61374,0.71575 0.74862,0.006 z m 2.33408,0.39874 c 0.18541,-0.0712 0.2919,-0.2025 0.23665,-0.29189 -0.0553,-0.0894 0.96676,-0.37516 2.27112,-0.63505 1.30435,-0.25988 2.5773,-0.55201 2.82878,-0.64919 0.4312,-0.16663 0.43446,-0.18585 0.0572,-0.3378 -0.22508,-0.0906 -1.53461,0.055 -2.99447,0.33314 -1.42695,0.27185 -2.78697,0.48013 -3.02225,0.46287 -0.78507,-0.0577 -1.68769,-0.0238 -1.77807,0.0666 -0.0491,0.0491 0.18643,0.33188 0.52352,0.6283 0.6069,0.53368 1.22584,0.67316 1.8775,0.4231 z m 3.39157,-0.22484 c -0.1448,-0.0585 -0.43356,-0.0622 -0.64167,-0.008 -0.20811,0.0542 -0.0896,0.10216 0.26329,0.10653 0.35292,0.005 0.52319,-0.04 0.37838,-0.0986 z m 6.74386,-2.3796 c 2.1069,-4.26226 3.27806,-5.28851 6.03205,-5.28568 1.17168,9.1e-4 1.58317,0.11051 2.61692,0.69515 1.12447,0.63593 1.38239,0.69372 3.09676,0.69372 l 1.87013,0 -1.92036,-1.18172 c -3.15818,-1.94341 -4.50159,-2.53522 -5.96681,-2.62852 -2.60631,-0.16596 -4.53585,0.85929 -6.14634,3.26579 -1.18537,1.77125 -3.25875,5.87861 -3.06639,6.07449 0.21672,0.22065 1.45572,0.63936 1.92296,0.64982 0.33391,0.007 0.67649,-0.49355 1.56108,-2.28305 z m 20.79426,1.44312 c 0.24212,-0.4746 0.38727,-0.94857 0.32256,-1.05327 -0.0647,-0.1047 0.052,-0.23357 0.25928,-0.28637 0.20731,-0.0528 0.0882,-0.0988 -0.26474,-0.10234 -0.35292,-0.004 -1.84284,-0.1059 -3.31094,-0.22758 -1.46808,-0.12169 -2.70181,-0.18867 -2.74163,-0.14886 -0.0577,0.0577 5.0663,2.67546 5.24613,2.68006 0.027,6.9e-4 0.24722,-0.38705 0.48934,-0.86164 z m -23.51562,-2.61283 c 1.74982,-3.48299 3.0698,-5.24185 4.54068,-6.05043 1.22994,-0.67613 1.23559,-0.68366 0.60789,-0.80921 -1.29679,-0.25936 -3.06135,0.59169 -3.66005,1.76523 -0.65447,1.28287 -2.77398,6.7848 -2.78649,7.23332 -0.009,0.33013 0.37859,-0.30892 1.29797,-2.13891 z m -2.9409,1.44971 c 0.48984,-0.0828 0.93287,-0.0433 1.10373,0.0985 0.22685,0.18828 0.37902,-0.0175 0.74163,-1.00324 1.6478,-4.47914 2.29646,-5.91299 2.98847,-6.60602 0.85167,-0.85289 2.13469,-1.26752 3.21661,-1.0395 0.41599,0.0877 1.39879,0.13938 2.18399,0.11493 1.25812,-0.0392 2.36988,0.13613 3.55869,0.56122 0.19851,0.071 -0.40728,-0.50442 -1.3462,-1.27868 -2.56969,-2.11902 -4.71449,-2.59478 -7.31366,-1.6223 -2.24396,0.83957 -3.4791,2.60938 -5.42589,7.77466 -0.13302,0.35292 -0.47202,1.24905 -0.75335,1.99141 -0.45516,1.20107 -0.47079,1.33858 -0.14191,1.24855 0.20327,-0.0557 0.73783,-0.16345 1.18789,-0.23954 z"
       id="path4242"
       inkscape:connector-curvature="0" />
  </g>
</svg>
