<?xml version="1.0" encoding="UTF-8" standalone="no"?>
<!-- Created with Inkscape (http://www.inkscape.org/) -->

<svg
   xmlns:dc="http://purl.org/dc/elements/1.1/"
   xmlns:cc="http://creativecommons.org/ns#"
   xmlns:rdf="http://www.w3.org/1999/02/22-rdf-syntax-ns#"
   xmlns:svg="http://www.w3.org/2000/svg"
   xmlns="http://www.w3.org/2000/svg"
   xmlns:sodipodi="http://sodipodi.sourceforge.net/DTD/sodipodi-0.dtd"
   xmlns:inkscape="http://www.inkscape.org/namespaces/inkscape"
   width="50"
   height="26.778057"
   viewBox="0 0 49.999998 26.778056"
   id="svg2"
   version="1.1"
   inkscape:version="0.91 r13725"
   sodipodi:docname="multiplexer.svg">
  <defs
     id="defs4" />
  <sodipodi:namedview
     id="base"
     pagecolor="#ffffff"
     bordercolor="#666666"
     borderopacity="1.0"
     inkscape:pageopacity="0.0"
     inkscape:pageshadow="2"
     inkscape:zoom="4.915749"
     inkscape:cx="97.627691"
     inkscape:cy="7.2048997"
     inkscape:document-units="px"
     inkscape:current-layer="g4161"
     showgrid="false"
     fit-margin-top="0"
     fit-margin-left="0"
     fit-margin-right="0"
     fit-margin-bottom="0"
     units="px"
     inkscape:window-width="1551"
     inkscape:window-height="876"
     inkscape:window-x="49"
     inkscape:window-y="24"
     inkscape:window-maximized="1" />
  <metadata
     id="metadata7">
    <rdf:RDF>
      <cc:Work
         rdf:about="">
        <dc:format>image/svg+xml</dc:format>
        <dc:type
           rdf:resource="http://purl.org/dc/dcmitype/StillImage" />
        <dc:title></dc:title>
      </cc:Work>
    </rdf:RDF>
  </metadata>
  <g
     inkscape:label="Layer 1"
     inkscape:groupmode="layer"
     id="layer1"
     transform="translate(-202.03125,-361.25124)">
    <g
       id="g4161"
       transform="matrix(0.17733812,0,0,0.17733812,166.20341,319.21691)">
      <path
         id="path4147"
         d="m 253.53125,237.0293 0,75.5 0,75.5 26.01563,0 26.01367,0 2.9414,0 25.5293,0 25.5293,0 2.9414,0 34.51563,0 34.51367,0 0,-16 0,-16 35,0 1,0 0,3 c 0.91526,1.37288 0.46166,3 1.02539,3 0.56373,0 4.2636,-1.63125 8.22266,-3.625 l 7.19922,-3.625 -7.47461,-3.82618 c -3.78469,-2.64528 -7.81016,-3.8478 -8.22266,-3.875 -0.4125,-0.0272 -0.75,1.30118 -0.75,2.95118 l 0,3 -1,0 -35,0 0,-12 0,-12 34.5,0 0.5,0 0,3 c 0,1.65 0.46166,3 1.02539,3 0.56373,0 4.2636,-1.63125 8.22266,-3.625 l 7.19922,-3.625 -7.47461,-3.82618 c -4.11029,-2.10403 -7.81016,-3.8478 -8.22266,-3.875 -0.4125,-0.0272 -0.75,1.30118 -0.75,2.95118 l 0,3 -0.5,0 -34.5,0 0,-13.5 0,-13.5 35,0 1,0 0,3 c 0.91526,1.37288 0.46166,3 1.02539,3 0.56373,0 4.2636,-1.63125 8.22266,-3.625 l 7.19922,-3.625 -7.47461,-3.82618 c -3.78469,-2.64528 -7.81016,-3.8478 -8.22266,-3.875 -0.4125,-0.0272 -0.75,1.30118 -0.75,2.95118 l 0,3 -1,0 -35,0 0,-12 0,-12 35,0 1,0 0,3 c 0,1.65 0.46166,3 1.02539,3 0.56373,0 4.2636,-1.63125 8.22266,-3.625 l 7.19922,-3.625 -7.47461,-3.82618 c -3.78469,-2.64528 -7.81016,-3.8478 -8.22266,-3.875 -0.4125,-0.0272 -0.75,1.30118 -0.75,2.95118 l 0,3 -1,0 -35,0 0,-16 0,-16 -89,0 -89,0 z m 3,3 86,0 86,0 0,72.5 0,72.5 -86,0 -86,0 0,-72.5 0,-72.5 z m -18.47461,62 c -0.28873,0 -0.52539,1.35 -0.52539,3 l 0,3 -35.5,0 0,3 35.5,0 0,3 c 0,1.65 0.44088,3 0.98047,3 1.62202,0 14.01953,-6.36789 14.01953,-7.20118 0,-0.69227 -13.18955,-7.79882 -14.47461,-7.79882 z"
         style="fill:#000000"
         inkscape:connector-curvature="0" />
      <path
         sodipodi:nodetypes="cccscsscssccccccsscsccccscccsccssssscccccsssscccsscc"
         inkscape:connector-curvature="0"
         id="path40423"
         d="m 405.1204,289.01573 c -4.43649,-0.0364 -7.44799,0.85672 -6.69412,1.9892 0.75377,1.13244 0.68846,3.70434 -0.14308,5.71562 -1.19462,2.89043 -2.24157,3.09367 -4.99438,0.97254 -1.91554,-1.47602 -2.91754,-4.04788 -2.22823,-5.71564 0.98003,-2.37112 -2.58503,-2.99528 -16.34484,-2.85559 -9.67825,0.0981 -16.22595,0.69384 -14.55001,1.32169 4.52834,1.69646 4.05318,26.59809 -0.57609,30.16513 -1.99398,1.53642 -5.28489,2.19905 -7.31305,1.47642 -4.77439,-1.70099 -5.34703,-29.87919 -0.64277,-31.64155 1.6759,-0.62785 -6.5513,-1.22348 -18.28271,-1.32169 -15.45181,-0.12972 -21.37975,0.6028 -21.51064,2.65223 -0.0993,1.55604 -2.09735,6.86529 -4.44216,11.79818 l -4.26595,8.96912 -4.56592,-11.79817 c -4.50864,-11.642 -4.70277,-11.7977 -14.44997,-11.62136 -5.43321,0.0981 -8.50811,0.69384 -6.83217,1.32169 2.02045,0.75692 3.04709,6.35276 3.04709,16.60764 0,10.25486 -1.02664,15.85066 -3.04709,16.60762 -1.6759,0.62786 0.79222,1.1405 5.48477,1.1405 4.6926,0 7.16075,-0.51264 5.48482,-1.1405 -1.91758,-0.71841 -2.98617,-5.47804 -2.88524,-12.83698 l 0.16214,-11.69209 6.27988,13.09337 c 3.4548,7.20214 7.39741,12.75047 8.76049,12.32865 1.36296,-0.42184 4.77176,-6.31307 7.57491,-13.0934 l 5.09437,-12.32862 0.75704,11.09533 c 0.50187,7.34552 -0.32225,11.73733 -2.43772,12.98283 -1.9303,1.13657 1.63204,1.82421 8.99377,1.73726 6.70364,-0.079 10.81726,-0.65849 9.14132,-1.28635 -2.02544,-0.75882 -3.04714,-6.39196 -3.04714,-16.79769 0,-14.14547 0.46993,-15.65286 4.87541,-15.65286 4.32716,3e-5 4.8754,1.50699 4.8754,13.41606 0,15.74666 3.70296,20.53301 15.88306,20.53301 11.10895,0 15.80685,-6.59383 15.80685,-22.17295 4e-5,-10.22078 0.6523,-11.99141 4.18027,-11.36056 3.91641,0.70026 15.32131,13.98694 15.32131,17.84976 0,0.96495 -3.37357,4.89138 -7.49878,8.72158 l -7.50352,6.96217 8.11293,-0.0364 c 6.06642,-0.0243 7.18682,-0.57346 4.45165,-2.17926 -3.18678,-1.871 -3.08609,-2.66976 0.76178,-6.19306 4.23981,-3.8822 4.5495,-3.86518 7.91771,0.35347 2.76063,3.45772 2.86003,4.77483 0.46183,6.18867 -1.78308,1.05117 1.22919,1.80967 7.26075,1.83006 l 10.30781,0.0365 -7.13696,-10.44555 c -6.73347,-9.85791 -6.91726,-10.74482 -3.28512,-15.89153 2.1162,-2.99873 5.62693,-6.41624 7.79866,-7.59432 3.05856,-1.6592 2.12978,-2.15682 -4.11832,-2.21024 z"
         style="fill:#400043;fill-opacity:1"
         inkscape:transform-center-x="-1.0236371"
         inkscape:transform-center-y="0.29246751" />
    </g>
  </g>
</svg>
