<?xml version="1.0" encoding="UTF-8" standalone="no"?>
<!-- Created with Inkscape (http://www.inkscape.org/) -->

<svg
   xmlns:dc="http://purl.org/dc/elements/1.1/"
   xmlns:cc="http://creativecommons.org/ns#"
   xmlns:rdf="http://www.w3.org/1999/02/22-rdf-syntax-ns#"
   xmlns:svg="http://www.w3.org/2000/svg"
   xmlns="http://www.w3.org/2000/svg"
   xmlns:sodipodi="http://sodipodi.sourceforge.net/DTD/sodipodi-0.dtd"
   xmlns:inkscape="http://www.inkscape.org/namespaces/inkscape"
   width="50"
   height="50"
   viewBox="0 0 49.999998 49.999998"
   id="svg2"
   version="1.1"
   inkscape:version="0.91 r13725"
   sodipodi:docname="output.svg">
  <defs
     id="defs4" />
  <sodipodi:namedview
     id="base"
     pagecolor="#ffffff"
     bordercolor="#666666"
     borderopacity="1.0"
     inkscape:pageopacity="0.0"
     inkscape:pageshadow="2"
     inkscape:zoom="3.959798"
     inkscape:cx="58.92436"
     inkscape:cy="-19.206269"
     inkscape:document-units="px"
     inkscape:current-layer="layer1"
     showgrid="false"
     fit-margin-top="0"
     fit-margin-left="0"
     fit-margin-right="0"
     fit-margin-bottom="0"
     units="px"
     inkscape:window-width="1553"
     inkscape:window-height="876"
     inkscape:window-x="47"
     inkscape:window-y="24"
     inkscape:window-maximized="1" />
  <metadata
     id="metadata7">
    <rdf:RDF>
      <cc:Work
         rdf:about="">
        <dc:format>image/svg+xml</dc:format>
        <dc:type
           rdf:resource="http://purl.org/dc/dcmitype/StillImage" />
        <dc:title />
      </cc:Work>
    </rdf:RDF>
  </metadata>
  <g
     inkscape:label="Layer 1"
     inkscape:groupmode="layer"
     id="layer1"
     transform="translate(-145.71431,-802.36224)">
    <path
       style="fill:#000000"
       d="M 23.583984 -0.009765625 C 16.542226 -0.009765625 9.5010576 0.041959363 9.0078125 0.14648438 C 6.8534822 0.60299443 5.2400788 2.0980991 4.5742188 4.2558594 C 4.4029787 4.8113794 4.3945312 5.716744 4.3945312 25.003906 C 4.3945312 44.291069 4.4027887 45.19448 4.5742188 45.75 C 5.2331888 47.88541 6.8478004 49.395889 8.9628906 49.855469 C 9.8935207 50.057529 37.207156 50.061325 38.160156 49.859375 C 40.290647 49.407915 41.873061 47.959928 42.587891 45.804688 C 42.750041 45.315687 42.768428 44.773769 42.798828 39.761719 L 42.832031 34.257812 L 41.386719 35.507812 C 40.591589 36.196073 39.743653 36.93832 39.501953 37.15625 L 39.0625 37.552734 L 39.013672 41.166016 C 38.959552 45.170906 38.973233 45.0868 38.289062 45.6875 C 38.099802 45.85368 37.779052 46.035497 37.576172 46.091797 C 37.062342 46.234487 10.105627 46.234487 9.5917969 46.091797 C 9.1608768 45.972127 8.6051707 45.512921 8.3691406 45.082031 C 8.2145306 44.799851 8.203125 43.427138 8.203125 25.003906 C 8.203125 6.5806741 8.2145706 5.2079613 8.3691406 4.9257812 C 8.6051707 4.4948912 9.1608768 4.0356856 9.5917969 3.9160156 C 10.105627 3.7733256 37.062342 3.7733256 37.576172 3.9160156 C 37.779052 3.9723556 38.099802 4.1541325 38.289062 4.3203125 C 38.973233 4.9210126 38.959572 4.8369064 39.013672 8.8417969 L 39.0625 12.455078 L 39.501953 12.849609 C 39.743653 13.067069 40.591589 13.808284 41.386719 14.496094 L 42.832031 15.746094 L 42.798828 10.244141 C 42.768418 5.23369 42.750081 4.6921151 42.587891 4.203125 C 41.873061 2.0478847 40.290647 0.59794443 38.160156 0.14648438 C 37.666911 0.041959363 30.625743 -0.009765625 23.583984 -0.009765625 z "
       transform="translate(145.71431,802.36224)"
       id="path4147" />
    <path
       style="fill:#000000"
       d="m 177.15984,814.05019 c -0.39067,-0.0733 -0.96292,0.18884 -1.24023,0.56836 -0.2827,0.38688 -0.33966,1.00821 -0.34766,3.76172 l -0.006,2.46679 -5.93945,0 -5.9375,0 -0.48243,0.24219 c -0.55519,0.2787 -0.91349,0.7472 -1.02929,1.3457 -0.10435,0.53933 -0.10435,7.80833 0,8.34766 0.1158,0.5985 0.4741,1.067 1.02929,1.3457 l 0.48243,0.24219 5.9375,0 5.93945,0 0,2.42773 c 0,1.33545 0.0433,2.66217 0.0977,2.94922 0.10749,0.56679 0.41899,1.10043 0.73046,1.25196 0.10811,0.0525 0.39511,0.0976 0.63868,0.10156 l 0.44336,0.008 7.17382,-6.21875 c 3.94588,-3.41958 7.17383,-6.24545 7.17383,-6.28125 0,-0.0358 -3.22638,-2.86396 -7.17187,-6.2832 -5.40415,-4.68336 -7.25319,-6.23059 -7.49219,-6.27539 z"
       id="path4139"
       inkscape:connector-curvature="0" />
  </g>
</svg>
