<?xml version="1.0" encoding="UTF-8" standalone="no"?>
<!-- Created with Inkscape (http://www.inkscape.org/) -->

<svg
   xmlns:dc="http://purl.org/dc/elements/1.1/"
   xmlns:cc="http://creativecommons.org/ns#"
   xmlns:rdf="http://www.w3.org/1999/02/22-rdf-syntax-ns#"
   xmlns:svg="http://www.w3.org/2000/svg"
   xmlns="http://www.w3.org/2000/svg"
   xmlns:sodipodi="http://sodipodi.sourceforge.net/DTD/sodipodi-0.dtd"
   xmlns:inkscape="http://www.inkscape.org/namespaces/inkscape"
   width="50"
   height="50"
   viewBox="0 0 49.999998 49.999998"
   id="svg2"
   version="1.1"
   inkscape:version="0.91 r13725"
   sodipodi:docname="switch.svg">
  <defs
     id="defs4">
    <marker
       inkscape:stockid="Arrow2Mend"
       orient="auto"
       refY="0.0"
       refX="0.0"
       id="marker5429"
       style="overflow:visible;"
       inkscape:isstock="true">
      <path
         id="path5431"
         style="fill-rule:evenodd;stroke-width:0.625;stroke-linejoin:round;stroke:#000000;stroke-opacity:1;fill:#000000;fill-opacity:1"
         d="M 8.7185878,4.0337352 L -2.2072895,0.016013256 L 8.7185884,-4.0017078 C 6.9730900,-1.6296469 6.9831476,1.6157441 8.7185878,4.0337352 z "
         transform="scale(0.6) rotate(180) translate(0,0)" />
    </marker>
    <marker
       inkscape:isstock="true"
       style="overflow:visible;"
       id="marker5365"
       refX="0.0"
       refY="0.0"
       orient="auto"
       inkscape:stockid="Arrow2Mend">
      <path
         transform="scale(0.6) rotate(180) translate(0,0)"
         d="M 8.7185878,4.0337352 L -2.2072895,0.016013256 L 8.7185884,-4.0017078 C 6.9730900,-1.6296469 6.9831476,1.6157441 8.7185878,4.0337352 z "
         style="fill-rule:evenodd;stroke-width:0.625;stroke-linejoin:round;stroke:#000000;stroke-opacity:1;fill:#000000;fill-opacity:1"
         id="path5367" />
    </marker>
    <marker
       inkscape:isstock="true"
       style="overflow:visible;"
       id="marker5307"
       refX="0.0"
       refY="0.0"
       orient="auto"
       inkscape:stockid="Arrow2Mend">
      <path
         transform="scale(0.6) rotate(180) translate(0,0)"
         d="M 8.7185878,4.0337352 L -2.2072895,0.016013256 L 8.7185884,-4.0017078 C 6.9730900,-1.6296469 6.9831476,1.6157441 8.7185878,4.0337352 z "
         style="fill-rule:evenodd;stroke-width:0.625;stroke-linejoin:round;stroke:#000000;stroke-opacity:1;fill:#000000;fill-opacity:1"
         id="path5309" />
    </marker>
    <marker
       inkscape:stockid="Arrow1Send"
       orient="auto"
       refY="0.0"
       refX="0.0"
       id="Arrow1Send"
       style="overflow:visible;"
       inkscape:isstock="true">
      <path
         id="path4163"
         d="M 0.0,0.0 L 5.0,-5.0 L -12.5,0.0 L 5.0,5.0 L 0.0,0.0 z "
         style="fill-rule:evenodd;stroke:#000000;stroke-width:1pt;stroke-opacity:1;fill:#000000;fill-opacity:1"
         transform="scale(0.2) rotate(180) translate(6,0)" />
    </marker>
    <marker
       inkscape:stockid="Arrow1Lstart"
       orient="auto"
       refY="0.0"
       refX="0.0"
       id="Arrow1Lstart"
       style="overflow:visible"
       inkscape:isstock="true">
      <path
         id="path4148"
         d="M 0.0,0.0 L 5.0,-5.0 L -12.5,0.0 L 5.0,5.0 L 0.0,0.0 z "
         style="fill-rule:evenodd;stroke:#000000;stroke-width:1pt;stroke-opacity:1;fill:#000000;fill-opacity:1"
         transform="scale(0.8) translate(12.5,0)" />
    </marker>
    <marker
       inkscape:stockid="Arrow1Lend"
       orient="auto"
       refY="0.0"
       refX="0.0"
       id="Arrow1Lend"
       style="overflow:visible;"
       inkscape:isstock="true">
      <path
         id="path4151"
         d="M 0.0,0.0 L 5.0,-5.0 L -12.5,0.0 L 5.0,5.0 L 0.0,0.0 z "
         style="fill-rule:evenodd;stroke:#000000;stroke-width:1pt;stroke-opacity:1;fill:#000000;fill-opacity:1"
         transform="scale(0.8) rotate(180) translate(12.5,0)" />
    </marker>
  </defs>
  <sodipodi:namedview
     id="base"
     pagecolor="#ffffff"
     bordercolor="#666666"
     borderopacity="1.0"
     inkscape:pageopacity="0.0"
     inkscape:pageshadow="2"
     inkscape:zoom="9.5009438"
     inkscape:cx="59.42815"
     inkscape:cy="18.95651"
     inkscape:document-units="px"
     inkscape:current-layer="layer1"
     showgrid="false"
     inkscape:snap-text-baseline="true"
     fit-margin-top="0"
     fit-margin-left="0"
     fit-margin-right="0"
     fit-margin-bottom="0"
     units="px"
     inkscape:window-width="1553"
     inkscape:window-height="876"
     inkscape:window-x="47"
     inkscape:window-y="24"
     inkscape:window-maximized="1" />
  <metadata
     id="metadata7">
    <rdf:RDF>
      <cc:Work
         rdf:about="">
        <dc:format>image/svg+xml</dc:format>
        <dc:type
           rdf:resource="http://purl.org/dc/dcmitype/StillImage" />
        <dc:title></dc:title>
      </cc:Work>
    </rdf:RDF>
  </metadata>
  <g
     inkscape:label="Layer 1"
     inkscape:groupmode="layer"
     id="layer1"
     transform="translate(-131.42857,-739.50513)">
    <path
       style="fill:#00003b;fill-opacity:1"
       d="m 146.84461,763.99232 c 0.63511,-0.41421 1.10662,-0.83631 1.04782,-0.93795 -0.0588,-0.10163 -0.71601,-0.77908 -1.46047,-1.5054 l -1.35359,-1.32056 -1.51011,0.92282 -0.76399,-0.67286 c 1.32073,-0.85043 1.42763,-0.96942 1.13052,-1.2584 -0.43834,-0.42632 -0.53543,-0.37737 -1.86886,0.94223 l -1.0224,-0.38807 c 0.89873,-0.83774 1.64811,-1.57679 1.6653,-1.64232 0.0172,-0.0656 -0.89079,-0.98204 -2.01771,-2.03668 -1.88686,-1.76579 -2.08971,-1.90195 -2.56365,-1.72091 -0.88383,0.33762 -3.71812,0.5723 -5.24705,0.43448 l -0.65573,-1.14699 c 2.47585,0.48652 6.42543,10e-4 6.2075,-0.76209 -0.0432,-0.15129 0.41217,-1.87642 1.01232,-3.83347 l 1.09027,-3.55852 4.85354,-0.86266 c 2.66944,-0.47446 5.00161,-0.85569 5.1826,-0.84713 0.18097,0.009 2.31051,1.86684 4.73233,4.12958 l 4.40327,4.11406 0.20281,0.22286 2.22119,2.04525 c 1.22162,1.12488 2.93882,2.73279 3.816,3.57313 3.08205,2.95269 7.71102,7.18852 7.91745,7.24502 l 4.18153,4.11186 3.02934,2.82175 -1.02613,4.10229 -1.02613,4.10229 -4.34715,1.69375 c -2.39094,0.93158 -4.4849,1.68998 -4.65324,1.68533 -0.16833,-0.004 -1.7754,-1.40159 -3.57121,-3.10436 l -3.26512,-3.09596 -0.42587,0.39545 c 0.37423,0.37861 -1.76075,0.76853 -1.55656,0.26461 0.66352,-0.73509 1.15239,-1.395 1.08637,-1.46647 -0.19699,-0.21328 -9.77825,-9.33391 -11.87206,-11.30133 l -1.46155,-1.37329 -1.34328,0.78486 z m 23.11614,18.73827 c 0.0345,-0.1318 0.22139,-0.12322 0.43819,0.0202 0.36677,0.24251 0.40358,0.15197 1.2499,-3.07449 0.62974,-2.40083 0.8159,-3.40399 0.67001,-3.61104 -0.11107,-0.15769 -1.11049,-1.12885 -2.22092,-2.15814 -1.11044,-1.0293 -1.95797,-1.90818 -1.88342,-1.9531 0.12635,-0.0761 4.19488,3.69515 4.42633,4.1028 0.0577,0.10174 -0.18658,1.55844 -0.54291,3.23723 -0.35638,1.67879 -0.62552,3.09964 -0.59815,3.15741 0.0548,0.11559 0.65481,-0.0953 4.49154,-1.5783 l 2.59091,-1.00152 1.00853,-3.84491 1.00852,-3.84489 -3.38082,-3.17237 c -1.85946,-1.74479 -3.46336,-3.12244 -3.56423,-3.06143 -0.10091,0.0611 -1.42725,1.43146 -2.9475,3.04544 -2.51538,2.67045 -4.28031,4.37683 -3.32032,3.21019 0.24011,-0.29182 0.27688,-0.48078 0.13256,-0.68102 -0.1099,-0.15242 -2.71906,-2.65541 -5.79815,-5.56217 -3.0791,-2.90677 -6.98148,-6.59539 -8.67197,-8.19694 -1.71701,-1.62669 -3.24043,-2.90786 -3.45156,-2.9027 -0.20787,0.006 -0.58186,0.0258 -0.83108,0.046 -0.42616,0.0346 -0.42017,0.0195 0.10069,-0.25372 l 0.55386,-0.29051 -1.44831,-1.37157 c -4.42912,-4.19447 -7.07919,-6.62647 -7.16017,-6.57098 -0.0504,0.0345 -0.51093,1.47918 -1.02354,3.21037 -1.02067,3.44709 -1.00357,3.61196 0.31328,3.02146 0.58967,-0.26441 0.6747,-0.41414 0.96376,-1.69709 0.20442,-0.90749 0.3977,-1.38503 0.54406,-1.34496 0.29178,0.0799 2.42851,2.05002 2.50882,2.31323 0.0482,0.15827 -0.29239,1.47548 -0.68123,2.63596 -0.0307,0.0912 -0.21466,0.0113 -0.40898,-0.17774 -0.27794,-0.27029 -0.37084,-0.27695 -0.43531,-0.0312 -0.0451,0.17185 -0.169,0.32326 -0.2755,0.3364 -0.10648,0.0132 -0.33673,0.35545 -0.51174,0.76065 -0.30205,0.69932 -0.27921,0.77535 0.45067,1.4976 0.4229,0.4185 0.80754,0.72402 0.85478,0.67895 0.0472,-0.0451 0.41766,-0.4475 0.82318,-0.89432 0.66095,-0.72829 0.708,-0.842 0.45437,-1.09823 -0.21536,-0.21757 -0.19483,-0.6217 0.0859,-1.69213 0.20289,-0.77346 0.4297,-1.35295 0.50408,-1.28773 0.0743,0.0652 0.67608,0.6242 1.33717,1.24219 l 1.20198,1.12359 -0.36145,1.37796 c -0.33364,1.27199 -0.39095,1.3606 -0.74565,1.15213 -0.24974,-0.14675 -0.41208,-0.11973 -0.46365,0.0768 -0.0436,0.16649 -0.15015,0.28335 -0.23651,0.25971 -0.0864,-0.0237 -0.33541,0.12972 -0.55331,0.34084 -0.33045,0.32016 -0.3581,0.42686 -0.16639,0.643 0.17196,0.19401 0.12436,0.23576 -0.18944,0.16614 -0.23051,-0.051 -0.32238,-0.0169 -0.20416,0.076 0.11821,0.0929 0.78067,-0.0552 1.47214,-0.32898 l 1.2573,-0.49793 0.33344,-1.27124 c 0.19053,-0.72639 0.42448,-1.24633 0.54593,-1.21309 0.11688,0.0319 0.77229,0.59294 1.45648,1.24655 l 1.24399,1.18838 -0.40368,1.29088 c -0.37255,1.19159 -0.43721,1.27631 -0.8405,1.1013 -0.36582,-0.15876 -0.49428,-0.0625 -0.78958,0.5913 -0.19393,0.42951 -0.51786,0.85618 -0.71975,0.9482 -0.31248,0.14238 -0.30891,0.20575 0.0241,0.42588 0.25104,0.16594 0.64223,0.16029 1.09235,-0.0156 1.23048,-0.48126 1.40366,-0.70819 1.77419,-2.32494 l 0.34729,-1.51562 1.35424,1.23455 1.35425,1.23455 -0.3584,1.36637 c -0.33271,1.26841 -0.38551,1.34844 -0.73633,1.11646 -0.2758,-0.18232 -0.40363,-0.15186 -0.473,0.1126 -0.0681,0.25964 -0.207,0.29669 -0.48955,0.13062 -0.34432,-0.20246 -0.40926,-0.14288 -0.51071,0.46771 -0.0988,0.59456 -0.17546,0.67141 -0.51053,0.51203 -0.56373,-0.26808 -0.56682,-0.3408 -0.0357,-0.83364 0.43409,-0.40271 0.59756,-1.13343 0.27022,-1.20792 -0.074,-0.0168 -0.52442,0.15666 -1.00091,0.38554 l -0.86636,0.41618 1.12871,1.11969 c 0.62078,0.61583 2.36838,2.28973 3.88355,3.71979 1.5152,1.43004 4.0192,3.79927 5.56447,5.26493 1.54528,1.46565 2.83507,2.63617 2.86621,2.60113 0.0313,-0.0351 0.36541,-0.33228 0.74282,-0.66057 0.58982,-0.51306 0.73881,-0.82057 1.06084,-2.18958 0.27951,-1.18817 0.44265,-1.57236 0.64245,-1.51263 0.14736,0.0438 0.74302,0.55083 1.3238,1.12624 l 1.056,1.04618 -0.36352,1.38587 c -0.30509,1.16313 -0.41546,1.36171 -0.6869,1.23557 -0.17787,-0.0826 -0.41305,-0.0226 -0.52261,0.13351 -0.17309,0.24652 -0.27471,0.21452 -0.77395,-0.24363 -0.55238,-0.50691 -0.59447,-0.51248 -1.08235,-0.14354 -0.27917,0.21113 -0.52574,0.45308 -0.54791,0.53764 -0.0222,0.0846 1.09908,1.23058 2.4917,2.54669 1.39262,1.31609 2.73176,2.58254 2.97584,2.81432 0.5407,0.51343 0.73478,0.58005 0.81368,0.27926 z m -0.48395,-12.74757 c 0.72279,-0.78536 1.93676,-2.09688 2.69773,-2.91451 l 1.38357,-1.48658 -4.75888,-4.4436 c -2.61741,-2.444 -5.79949,-5.42169 -7.07134,-6.6171 l -2.31243,-2.17348 -4.57091,1.113 c -2.514,0.61215 -4.60139,1.0579 -4.63864,0.99057 -0.0372,-0.0675 1.94692,-0.60065 4.40927,-1.18514 2.46236,-0.58451 4.429,-1.14052 4.37033,-1.23563 -0.0587,-0.0952 -1.95591,-1.90986 -4.21607,-4.0328 l -4.10937,-3.8599 -4.81925,0.85945 c -5.53868,0.98777 -5.3049,0.62921 -2.25735,3.46252 1.07849,1.00268 2.75818,2.58749 3.73265,3.5218 1.61416,1.54762 4.76942,4.53653 14.91877,14.13216 1.9544,1.84777 3.94933,3.75229 4.4332,4.23227 0.48388,0.47997 1.0181,0.91593 1.18717,0.96879 0.17737,0.0555 0.86314,-0.50777 1.62155,-1.33182 z m -21.13926,-8.22782 c 0.0964,-0.0581 0.0565,-0.13795 -0.0883,-0.17762 -0.14509,-0.0398 -0.17504,-0.1981 -0.0666,-0.35253 0.14074,-0.20045 0.0864,-0.26879 -0.19058,-0.23966 -0.33031,0.0347 -0.33451,8.2e-4 -0.0286,-0.22974 0.24125,-0.18181 0.29976,-0.33563 0.17845,-0.46934 -0.0992,-0.10933 -0.1294,-0.39306 -0.0671,-0.63041 0.11073,-0.42217 0.0923,-0.42586 -0.85483,-0.17051 -1.52902,0.41232 -1.6104,0.5612 -0.78728,1.44024 0.67606,0.72201 1.49284,1.07769 1.90485,0.82954 z m -3.3934,-4.01683 c -0.0642,-0.11607 -0.29808,-0.0593 -0.51966,0.12615 -0.62582,0.52369 -0.58563,0.82094 0.0585,0.43295 0.31784,-0.19143 0.52535,-0.44302 0.46113,-0.5591 z m -3.58888,-2.84953 c -0.14977,-0.1023 -0.12838,-0.20971 0.0711,-0.35679 0.20478,-0.15101 0.20639,-0.338 0.005,-0.66195 -0.26013,-0.41981 -0.34492,-0.42602 -1.20891,-0.0885 l -0.92914,0.363 0.94603,0.88234 c 0.93914,0.87589 0.94743,0.87914 1.13784,0.44526 0.1055,-0.24038 0.0953,-0.50291 -0.0225,-0.58338 z"
       id="path4242"
       inkscape:connector-curvature="0"
       sodipodi:nodetypes="ccsccccccssscccccscsccsscccccscscccsscccsscsscccscccscsscssccccscsscscccsccscscscscscssccscccssccccccccscccscscccscscssscsccscsccccsscccsccsscscscscssssscsccccccscsccccsccccscscccc" />
  </g>
</svg>
