<?xml version="1.0" encoding="UTF-8" standalone="no"?>
<!-- Created with Inkscape (http://www.inkscape.org/) -->

<svg
   xmlns:dc="http://purl.org/dc/elements/1.1/"
   xmlns:cc="http://creativecommons.org/ns#"
   xmlns:rdf="http://www.w3.org/1999/02/22-rdf-syntax-ns#"
   xmlns:svg="http://www.w3.org/2000/svg"
   xmlns="http://www.w3.org/2000/svg"
   xmlns:sodipodi="http://sodipodi.sourceforge.net/DTD/sodipodi-0.dtd"
   xmlns:inkscape="http://www.inkscape.org/namespaces/inkscape"
   width="50"
   height="50.000313"
   viewBox="0 0 49.999998 50.000313"
   id="svg2"
   version="1.1"
   inkscape:version="0.91 r13725"
   sodipodi:docname="udp.svg">
  <defs
     id="defs4" />
  <sodipodi:namedview
     id="base"
     pagecolor="#ffffff"
     bordercolor="#666666"
     borderopacity="1.0"
     inkscape:pageopacity="0.0"
     inkscape:pageshadow="2"
     inkscape:zoom="1.7600801"
     inkscape:cx="58.127355"
     inkscape:cy="2.7628805"
     inkscape:document-units="px"
     inkscape:current-layer="layer1"
     showgrid="false"
     fit-margin-top="0"
     fit-margin-left="0"
     fit-margin-right="0"
     fit-margin-bottom="0"
     units="px"
     inkscape:window-width="1553"
     inkscape:window-height="876"
     inkscape:window-x="47"
     inkscape:window-y="24"
     inkscape:window-maximized="1" />
  <metadata
     id="metadata7">
    <rdf:RDF>
      <cc:Work
         rdf:about="">
        <dc:format>image/svg+xml</dc:format>
        <dc:type
           rdf:resource="http://purl.org/dc/dcmitype/StillImage" />
        <dc:title></dc:title>
      </cc:Work>
    </rdf:RDF>
  </metadata>
  <g
     inkscape:label="Layer 1"
     inkscape:groupmode="layer"
     id="layer1"
     transform="translate(-248.72934,-335.76208)">
    <g
       id="g4598"
       transform="matrix(0.4387094,0,0,0.4387094,139.60944,216.5248)">
      <path
         id="path4579"
         d="m 305.88867,271.79102 c -48.39413,0 -53.69199,0.1577 -55.3457,1.65429 -1.72833,1.56408 -1.827,4.57144 -1.8125,54.75 0.008,29.20225 0.34592,53.58464 0.75,54.18164 0.40408,0.59701 1.63437,1.59498 2.73437,2.21875 1.41722,0.80366 16.95174,1.14257 53.31446,1.16407 51.22526,0.0304 54.27134,-0.15134 56.41992,-3.36915 0.40408,-0.60516 0.742,-24.91479 0.75,-54.02148 0.0138,-47.85389 -0.14411,-53.09637 -1.64063,-54.75 -1.56405,-1.72826 -4.59421,-1.82812 -55.16992,-1.82812 z m 1.32617,18.67187 c 23.73042,0 41.83888,13.13898 41.80078,30.32813 -0.0399,18.00565 -17.5399,31.13862 -41.83203,31.39453 -9.95602,0.10488 -10.0767,0.1362 -16.64062,4.25195 l -6.61328,4.14648 -0.69336,-7.39648 c -0.38119,-4.06792 -1.0639,-7.39648 -1.51758,-7.39648 -0.45369,0 -3.05838,-1.76494 -5.78711,-3.92188 -6.6913,-5.28917 -10.22013,-12.38781 -10.20703,-20.52539 0.0292,-18.07313 17.23694,-30.88086 41.49023,-30.88086 z"
         style="fill:#000000"
         inkscape:connector-curvature="0" />
      <path
         inkscape:connector-curvature="0"
         id="path4590"
         d="m 302.27628,310.21639 0,10.64062 0,10.64063 5.57031,-0.57617 c 6.34631,-0.655 8.16528,-1.82933 10.13476,-6.54102 3.01097,-7.20325 -2.31667,-14.16406 -10.83984,-14.16406 l -4.86523,0 z m 19,0 0,10.5 c 0,9.83333 0.12698,10.5 2,10.5 1.66667,0 2,-0.66667 2,-4 0,-3.9403 0.0554,-4 3.67187,-4 4.69333,0 7.32813,-2.37212 7.32813,-6.59766 0,-4.4498 -2.9646,-6.40234 -9.72266,-6.40234 l -5.27734,0 z m -33.58985,0.11914 c -0.20531,0.003 -0.43783,0.029 -0.70117,0.0664 -2.00253,0.28482 -2.23693,0.96678 -2.50977,7.29493 -0.37582,8.71668 0.16493,10.90861 3.0293,12.28906 3.71326,1.78955 6.70867,1.38508 9.35938,-1.26563 2.29634,-2.29638 2.47376,-3.11691 2.20508,-10.23828 -0.243,-6.44057 -0.58724,-7.80014 -2.04297,-8.07812 -1.5367,-0.29344 -1.75213,0.5595 -1.76563,6.99023 -0.0169,8.10098 -0.79799,10.19652 -3.60351,9.66016 -1.63112,-0.31184 -1.91901,-1.45887 -2.17188,-8.66211 -0.24328,-6.93021 -0.36164,-8.07858 -1.79883,-8.05664 z m 20.58203,3.77539 c 0.73775,0.0144 1.73539,0.4241 3.07422,1.14062 1.46544,0.78428 1.9336,2.10886 1.9336,5.46485 0,3.35599 -0.46816,4.68056 -1.9336,5.46484 -4.28427,2.29287 -5.0664,1.44981 -5.0664,-5.46484 0,-4.75382 0.36915,-6.63726 1.99218,-6.60547 z m 20.03516,0.27734 c 2.20574,0.003 4.43295,2.27562 3.5,3.78516 -0.35481,0.5741 -2.00045,1.04297 -3.65625,1.04297 -2.55005,0 -2.96012,-0.34415 -2.68945,-2.25 0.19666,-1.38469 1.12157,-2.36332 2.40625,-2.54688 0.14592,-0.0208 0.2924,-0.0315 0.43945,-0.0312 z"
         style="fill:#007000;fill-opacity:1" />
    </g>
  </g>
</svg>
